# xmcd
#
# Track frame offsets: 
#        150
#        16133
#        30258
#        51932
#        83671
#        98334
#        125177
#        143628
#        179179
#        207095
#        212803
#        229237
#        263607
#        290010
#        295951
#
# Disc length: 4403 seconds
#
# Revision: 0
# Processed by: cddbd v1.5.2PL0 Copyright (c) Steve Scherf et al.
# Submitted via: ExactAudioCopyFreeDBPlugin 1.0
#
DISCID=d811310f
DTITLE=Junior Wells - Southside Blues Jam
DYEAR=2014
DGENRE=Blues
TTITLE0=Stop Breaking Down
TTITLE1=I Could Have Had Religion
TTITLE2=Just Make Love To Me
TTITLE3=Lend Me Your Love
TTITLE4=Long Distance Call
TTITLE5=Blues For Mayor Daley
TTITLE6=In My Younger Days
TTITLE7=Trouble Don't Last
TTITLE8=It's Too Late Brother
TTITLE9=Warmin' Up
TTITLE10=Love Me Baby
TTITLE11=I Could Have Had Religion (Alternate)
TTITLE12=Rock Me
TTITLE13=Lexington Movies
TTITLE14=Got To Play The Blues
EXTD=
EXTT0=
EXTT1=
EXTT2=
EXTT3=
EXTT4=
EXTT5=
EXTT6=
EXTT7=
EXTT8=
EXTT9=
EXTT10=
EXTT11=
EXTT12=
EXTT13=
EXTT14=
PLAYORDER=
